<svg width="32" height="32" viewBox="0 0 32 32" fill="none" xmlns="http://www.w3.org/2000/svg">
<path d="M21.4724 7.36723C21.3563 7.25083 21.2184 7.15847 21.0665 7.09545C20.9147 7.03244 20.7519 7 20.5874 7C20.423 7 20.2602 7.03244 20.1084 7.09545C19.9565 7.15847 19.8186 7.25083 19.7024 7.36723L11.2924 15.7772C11.1997 15.8697 11.1262 15.9796 11.076 16.1006C11.0258 16.2216 11 16.3513 11 16.4822C11 16.6132 11.0258 16.7429 11.076 16.8639C11.1262 16.9848 11.1997 17.0947 11.2924 17.1872L19.7024 25.5972C20.1924 26.0872 20.9824 26.0872 21.4724 25.5972C21.9624 25.1072 21.9624 24.3172 21.4724 23.8272L14.1324 16.4872L21.4824 9.13723C21.9624 8.64723 21.9624 7.85723 21.4724 7.36723Z" fill="#101010"/>
</svg>
