<svg width="30" height="30" viewBox="0 0 30 30" fill="none" xmlns="http://www.w3.org/2000/svg">
<rect width="30" height="30" rx="15" fill="black"/>
<path d="M7.5 14.375C7.15482 14.375 6.875 14.6548 6.875 15C6.875 15.3452 7.15482 15.625 7.5 15.625V14.375ZM22.9419 15.4419C23.186 15.1979 23.186 14.8021 22.9419 14.5581L18.9645 10.5806C18.7204 10.3365 18.3247 10.3365 18.0806 10.5806C17.8365 10.8247 17.8365 11.2204 18.0806 11.4645L21.6161 15L18.0806 18.5355C17.8365 18.7796 17.8365 19.1753 18.0806 19.4194C18.3247 19.6635 18.7204 19.6635 18.9645 19.4194L22.9419 15.4419ZM7.5 15.625H22.5V14.375H7.5V15.625Z" fill="white"/>
</svg>
