<svg width="24" height="24" viewBox="0 0 24 24" fill="none" xmlns="http://www.w3.org/2000/svg">
<path d="M8.37814 23.4243C9.24069 23.4243 9.93993 22.7251 9.93993 21.8625C9.93993 21 9.24069 20.3007 8.37814 20.3007C7.51558 20.3007 6.81635 21 6.81635 21.8625C6.81635 22.7251 7.51558 23.4243 8.37814 23.4243Z" fill="black"/>
<path d="M17.8669 23.4243C18.7295 23.4243 19.4287 22.7251 19.4287 21.8625C19.4287 21 18.7295 20.3007 17.8669 20.3007C17.0044 20.3007 16.3051 21 16.3051 21.8625C16.3051 22.7251 17.0044 23.4243 17.8669 23.4243Z" fill="black"/>
<path d="M22.0872 4.93961C22.0226 4.85999 21.9412 4.79566 21.8488 4.75125C21.7564 4.70684 21.6553 4.68346 21.5527 4.68278H7.10092L7.55211 6.07104H20.6434L18.7901 14.4006H8.37813L5.20595 4.35654C5.17164 4.24996 5.11205 4.15327 5.03228 4.0747C4.95251 3.99614 4.85491 3.93804 4.74782 3.90536L1.90189 3.03075C1.81438 3.00386 1.72243 2.99447 1.63129 3.00311C1.54016 3.01176 1.45161 3.03827 1.37072 3.08113C1.20735 3.1677 1.08506 3.31562 1.03075 3.49235C0.976445 3.66908 0.994568 3.86015 1.08113 4.02352C1.1677 4.18689 1.31562 4.30917 1.49235 4.36348L3.98428 5.12703L7.17034 15.1919L6.03196 16.1221L5.94173 16.2123C5.66014 16.5368 5.50054 16.9493 5.4904 17.3788C5.48027 17.8084 5.62023 18.228 5.8862 18.5654C6.07539 18.7955 6.3158 18.9781 6.5882 19.0986C6.8606 19.2191 7.15742 19.2742 7.45493 19.2595H19.04C19.2241 19.2595 19.4006 19.1864 19.5308 19.0562C19.661 18.926 19.7341 18.7495 19.7341 18.5654C19.7341 18.3813 19.661 18.2047 19.5308 18.0746C19.4006 17.9444 19.2241 17.8713 19.04 17.8713H7.34387C7.26394 17.8685 7.18606 17.8452 7.11776 17.8036C7.04946 17.762 6.99305 17.7035 6.95397 17.6337C6.9149 17.5639 6.89447 17.4852 6.89468 17.4053C6.89489 17.3253 6.91572 17.2467 6.95516 17.1771L8.62801 15.7889H19.3454C19.5058 15.7928 19.6627 15.741 19.7893 15.6423C19.9158 15.5436 20.0043 15.404 20.0395 15.2474L22.2399 5.52962C22.261 5.42614 22.2582 5.3192 22.2318 5.21696C22.2053 5.11472 22.1559 5.01986 22.0872 4.93961Z" fill="black"/>
</svg>
