<svg width="32" height="32" viewBox="0 0 32 32" fill="none" xmlns="http://www.w3.org/2000/svg">
<path d="M5.72398 14.276L15.0573 4.94263C15.3074 4.69267 15.6464 4.55225 16 4.55225C16.3535 4.55225 16.6926 4.69267 16.9426 4.94263L26.276 14.276C26.526 14.526 26.6666 14.865 26.6666 15.2186V28C26.6666 28.3536 26.5262 28.6927 26.2761 28.9428C26.0261 29.1928 25.6869 29.3333 25.3333 29.3333H18.6666V20H13.3333V29.3333H6.66665C6.31302 29.3333 5.97389 29.1928 5.72384 28.9428C5.47379 28.6927 5.33331 28.3536 5.33331 28V15.2186C5.33339 14.865 5.47391 14.526 5.72398 14.276Z" fill="#101010"/>
</svg>
