<svg width="32" height="32" viewBox="0 0 32 32" fill="none" xmlns="http://www.w3.org/2000/svg">
<path d="M26.2399 14.4H5.75993C4.87673 14.4 4.79993 15.1152 4.79993 16C4.79993 16.8848 4.87673 17.6 5.75993 17.6H26.2399C27.1231 17.6 27.1999 16.8848 27.1999 16C27.1999 15.1152 27.1231 14.4 26.2399 14.4ZM26.2399 20.8H5.75993C4.87673 20.8 4.79993 21.5152 4.79993 22.4C4.79993 23.2848 4.87673 24 5.75993 24H26.2399C27.1231 24 27.1999 23.2848 27.1999 22.4C27.1999 21.5152 27.1231 20.8 26.2399 20.8ZM5.75993 11.2H26.2399C27.1231 11.2 27.1999 10.4848 27.1999 9.6C27.1999 8.7152 27.1231 8 26.2399 8H5.75993C4.87673 8 4.79993 8.7152 4.79993 9.6C4.79993 10.4848 4.87673 11.2 5.75993 11.2Z" fill="#101010"/>
</svg>
