<svg width="21" height="21" viewBox="0 0 21 21" fill="none" xmlns="http://www.w3.org/2000/svg">
<path d="M17.654 16.5951L20.5835 19.5231C20.7201 19.6646 20.7957 19.854 20.794 20.0507C20.7923 20.2473 20.7134 20.4354 20.5744 20.5745C20.4353 20.7135 20.2472 20.7924 20.0506 20.7941C19.8539 20.7958 19.6645 20.7202 19.523 20.5836L16.5935 17.6541C14.6791 19.2943 12.2039 20.1292 9.68722 19.9838C7.17053 19.8383 4.808 18.7237 3.09537 16.8739C1.38275 15.024 0.453169 12.5828 0.501686 10.0624C0.550202 7.54193 1.57305 5.13825 3.35559 3.35571C5.13813 1.57317 7.54181 0.550324 10.0622 0.501808C12.5827 0.453292 15.0239 1.38287 16.8737 3.0955C18.7236 4.80812 19.8382 7.17065 19.9836 9.68734C20.1291 12.204 19.2942 14.6793 17.654 16.5936V16.5951ZM10.25 18.5001C12.438 18.5001 14.5365 17.6309 16.0836 16.0838C17.6308 14.5366 18.5 12.4382 18.5 10.2501C18.5 8.06209 17.6308 5.96367 16.0836 4.41649C14.5365 2.86932 12.438 2.00012 10.25 2.00012C8.06196 2.00012 5.96354 2.86932 4.41637 4.41649C2.86919 5.96367 2 8.06209 2 10.2501C2 12.4382 2.86919 14.5366 4.41637 16.0838C5.96354 17.6309 8.06196 18.5001 10.25 18.5001Z" fill="black"/>
</svg>
