<svg width="416" height="121" viewBox="0 0 416 121" fill="none" xmlns="http://www.w3.org/2000/svg">
<path d="M92.0721 16.8987C86.174 28.0329 80.5456 56.6209 105.216 81.8987C114.148 72.1687 124.023 45.5468 92.0721 16.8987Z" fill="black"/>
<path d="M111.91 107.899C107.976 94.9672 114.838 63.1425 172 27.8987C167.775 55.5151 149.493 107.899 111.91 107.899Z" fill="black"/>
<path d="M98.5963 111.323C35.6122 118.379 -1.26236 48.4204 0.854893 10.2565C6.89908 11.2699 39.2982 23.8106 71.5686 55.6964C102.251 92.3907 111.402 109.888 98.5963 111.323Z" fill="black"/>
<path d="M237.52 69.72C237.52 74.328 235.816 77.832 232.408 80.232C229.048 82.584 224.464 83.76 218.656 83.76H212.464V105H205.48V57.336H220.96C225.808 57.336 229.768 58.44 232.84 60.648C235.96 62.856 237.52 65.88 237.52 69.72ZM212.464 81.672H218.872C221.128 81.672 223.048 81.24 224.632 80.376C226.264 79.512 227.44 78.408 228.16 77.064C229.456 74.664 230.104 72.336 230.104 70.08C230.104 68.976 229.816 67.656 229.24 66.12C228.088 62.952 225.712 60.888 222.112 59.928C218.656 59.928 215.44 60.336 212.464 61.152V81.672ZM248.253 55.824V105H242.205V55.824H248.253ZM272.7 97.368V89.952C269.244 90.192 266.412 90.96 264.204 92.256C261.996 93.552 260.892 94.944 260.892 96.432C260.892 97.92 261.276 99.216 262.044 100.32C262.812 101.376 263.796 102.12 264.996 102.552C266.58 102.264 268.26 101.472 270.036 100.176C271.812 98.88 272.7 97.944 272.7 97.368ZM278.604 95.424C278.604 98.832 279.852 101.424 282.348 103.2L278.604 105.936L272.772 100.68C268.98 104.136 265.476 105.864 262.26 105.864C260.148 105.864 258.324 105.192 256.788 103.848C255.3 102.504 254.556 100.824 254.556 98.808C254.556 96.744 255.156 95.04 256.356 93.696C257.604 92.352 259.236 91.32 261.252 90.6C264.708 89.304 268.524 88.488 272.7 88.152V81.384C272.7 77.4 270.396 75.408 265.788 75.408C263.148 75.408 260.028 75.984 256.428 77.136L255.78 75.336C256.74 74.568 258.396 73.752 260.748 72.888C263.148 72.024 265.428 71.592 267.588 71.592C269.748 71.592 271.548 71.88 272.988 72.456C274.476 73.032 275.556 73.68 276.228 74.4C276.948 75.12 277.5 76.104 277.884 77.352C278.268 78.6 278.484 79.584 278.532 80.304C278.58 81.024 278.604 81.984 278.604 83.184V95.424ZM294.336 77.064C296.352 75.144 298.104 73.752 299.592 72.888C301.128 72.024 302.928 71.592 304.992 71.592C307.056 71.592 308.952 72.408 310.68 74.04C312.456 75.672 313.344 78.48 313.344 82.464V105H307.224V83.184C307.224 80.832 306.792 79.08 305.928 77.928C305.112 76.728 303.672 76.128 301.608 76.128C299.592 76.128 297.24 77.472 294.552 80.16V105H288.432V82.392C288.432 79.128 287.208 76.512 284.76 74.544L288.432 71.808L294.336 77.064ZM329.772 98.664C329.772 100.104 330.06 101.184 330.636 101.904C331.212 102.624 332.172 102.984 333.516 102.984C334.86 102.984 336.468 102.624 338.34 101.904V103.92C335.556 105.216 333.06 105.864 330.852 105.864C328.644 105.864 326.892 105.264 325.596 104.064C324.348 102.816 323.724 100.896 323.724 98.304V75.048L317.892 73.896V72.456H323.724V69.864L329.772 65.472V72.456H338.34V75.048H329.772V98.664ZM366.871 72.456H369.607L357.295 106.08C355.711 110.496 353.335 114.048 350.167 116.736C346.999 119.424 343.519 120.792 339.727 120.84L340.447 117.24C346.927 117 351.967 112.8 355.567 104.64L340.951 72.456H347.359L358.375 96.864L366.871 72.456ZM373.248 56.256H379.08V61.296L376.992 73.968H375.264L373.248 61.296V56.256ZM400.236 87.072L413.124 105H405.996L396.708 91.392L386.772 105H383.316L395.268 89.808L383.532 72.456H390.66L398.868 85.56L408.516 72.456H412.044L400.236 87.072Z" fill="black"/>
</svg>
