<svg width="416" height="121" viewBox="0 0 416 121" fill="none" xmlns="http://www.w3.org/2000/svg">
<path d="M92.0721 16.8988C86.174 28.0331 80.5456 56.621 105.216 81.8988C114.148 72.1689 124.023 45.547 92.0721 16.8988Z" fill="white"/>
<path d="M111.91 107.899C107.976 94.9673 114.838 63.1426 172 27.8988C167.775 55.5152 149.493 107.899 111.91 107.899Z" fill="white"/>
<path d="M98.5963 111.323C35.6122 118.379 -1.26236 48.4205 0.854893 10.2566C6.89908 11.27 39.2982 23.8107 71.5686 55.6965C102.251 92.3908 111.402 109.888 98.5963 111.323Z" fill="white"/>
<path d="M237.52 69.7201C237.52 74.3281 235.816 77.8321 232.408 80.2321C229.048 82.5841 224.464 83.7601 218.656 83.7601H212.464V105H205.48V57.3361H220.96C225.808 57.3361 229.768 58.4401 232.84 60.6481C235.96 62.8561 237.52 65.8801 237.52 69.7201ZM212.464 81.6721H218.872C221.128 81.6721 223.048 81.2401 224.632 80.3761C226.264 79.5121 227.44 78.4081 228.16 77.0641C229.456 74.6641 230.104 72.3361 230.104 70.0801C230.104 68.9761 229.816 67.6561 229.24 66.1201C228.088 62.9521 225.712 60.8881 222.112 59.9281C218.656 59.9281 215.44 60.3361 212.464 61.1521V81.6721ZM248.253 55.8241V105H242.205V55.8241H248.253ZM272.7 97.3681V89.9521C269.244 90.1921 266.412 90.9601 264.204 92.2561C261.996 93.5521 260.892 94.9441 260.892 96.4321C260.892 97.9201 261.276 99.2161 262.044 100.32C262.812 101.376 263.796 102.12 264.996 102.552C266.58 102.264 268.26 101.472 270.036 100.176C271.812 98.8801 272.7 97.9441 272.7 97.3681ZM278.604 95.4241C278.604 98.8321 279.852 101.424 282.348 103.2L278.604 105.936L272.772 100.68C268.98 104.136 265.476 105.864 262.26 105.864C260.148 105.864 258.324 105.192 256.788 103.848C255.3 102.504 254.556 100.824 254.556 98.8081C254.556 96.7441 255.156 95.0401 256.356 93.6961C257.604 92.3521 259.236 91.3201 261.252 90.6001C264.708 89.3041 268.524 88.4881 272.7 88.1521V81.3841C272.7 77.4001 270.396 75.4081 265.788 75.4081C263.148 75.4081 260.028 75.9841 256.428 77.1361L255.78 75.3361C256.74 74.5681 258.396 73.7521 260.748 72.8881C263.148 72.0241 265.428 71.5921 267.588 71.5921C269.748 71.5921 271.548 71.8801 272.988 72.4561C274.476 73.0321 275.556 73.6801 276.228 74.4001C276.948 75.1201 277.5 76.1041 277.884 77.3521C278.268 78.6001 278.484 79.5841 278.532 80.3041C278.58 81.0241 278.604 81.9841 278.604 83.1841V95.4241ZM294.336 77.0641C296.352 75.1441 298.104 73.7521 299.592 72.8881C301.128 72.0241 302.928 71.5921 304.992 71.5921C307.056 71.5921 308.952 72.4081 310.68 74.0401C312.456 75.6721 313.344 78.4801 313.344 82.4641V105H307.224V83.1841C307.224 80.8321 306.792 79.0801 305.928 77.9281C305.112 76.7281 303.672 76.1281 301.608 76.1281C299.592 76.1281 297.24 77.4721 294.552 80.1601V105H288.432V82.3921C288.432 79.1281 287.208 76.5121 284.76 74.5441L288.432 71.8081L294.336 77.0641ZM329.772 98.6641C329.772 100.104 330.06 101.184 330.636 101.904C331.212 102.624 332.172 102.984 333.516 102.984C334.86 102.984 336.468 102.624 338.34 101.904V103.92C335.556 105.216 333.06 105.864 330.852 105.864C328.644 105.864 326.892 105.264 325.596 104.064C324.348 102.816 323.724 100.896 323.724 98.3041V75.0481L317.892 73.8961V72.4561H323.724V69.8641L329.772 65.4721V72.4561H338.34V75.0481H329.772V98.6641ZM366.871 72.4561H369.607L357.295 106.08C355.711 110.496 353.335 114.048 350.167 116.736C346.999 119.424 343.519 120.792 339.727 120.84L340.447 117.24C346.927 117 351.967 112.8 355.567 104.64L340.951 72.4561H347.359L358.375 96.8641L366.871 72.4561ZM373.248 56.2561H379.08V61.2961L376.992 73.9681H375.264L373.248 61.2961V56.2561ZM400.236 87.0721L413.124 105H405.996L396.708 91.3921L386.772 105H383.316L395.268 89.8081L383.532 72.4561H390.66L398.868 85.5601L408.516 72.4561H412.044L400.236 87.0721Z" fill="white"/>
</svg>
